<svg width="20" height="21" viewBox="0 0 20 21" fill="none" xmlns="http://www.w3.org/2000/svg">
<g clip-path="url(#clip0_635_952)">
<path d="M10.2986 21.0001H9.69878C9.49704 20.9398 9.28929 20.8904 9.0949 20.8175C8.11294 20.4508 7.32269 19.8724 6.60192 19.2349C3.93859 16.8788 1.96798 14.1757 0.675395 11.1442C0.0728568 9.73205 -0.181652 8.28867 0.140993 6.79047C0.951948 3.02551 4.85242 0.173291 9.49904 0.00883408C12.4175 -0.0942253 14.9546 0.691877 17.0354 2.38139C18.9513 3.9366 19.9252 5.84156 19.9974 8.05405C20.0321 9.12904 19.7362 10.1585 19.312 11.1623C18.1089 14.0112 16.2713 16.563 13.8517 18.827C12.8624 19.7529 11.8016 20.6273 10.2986 20.9995V21.0001ZM6.28729 7.2652C6.28795 8.95527 7.9446 10.3203 9.99737 10.3219C12.0461 10.3235 13.7088 8.95527 13.7101 7.26685C13.7115 5.57349 12.0622 4.21892 10 4.21837C7.93658 4.21837 6.28662 5.5724 6.28795 7.2652H6.28729Z" fill="#FB0049"/>
</g>
<defs>
<clipPath id="clip0_635_952">
<rect width="20" height="21" fill="white"/>
</clipPath>
</defs>
</svg>
