<svg width="22" height="22" viewBox="0 0 22 22" fill="none" xmlns="http://www.w3.org/2000/svg">
<g clip-path="url(#clip0_132_860)">
<path d="M7.60547 22H7.04688C6.91883 21.9596 6.79035 21.9209 6.66316 21.8788C4.87609 21.2846 3.08773 20.6933 1.30238 20.093C0.628203 19.8666 0.200664 19.4021 0.0395312 18.7026C0.0317969 18.6691 0.0133203 18.6381 0 18.6059C0 12.9198 0 7.23336 0 1.5473C0.0180469 1.49531 0.0386719 1.44418 0.0532813 1.39133C0.232031 0.75668 0.629922 0.324414 1.24824 0.0966797C1.34621 0.0605859 1.44719 0.0322266 1.54688 0C5.11328 0 8.67969 0 12.2461 0C12.3002 0.0146094 12.3539 0.0339453 12.4089 0.0438281C13.6005 0.253086 14.6004 1.31398 14.645 2.48961C14.6841 3.51184 14.6596 4.53664 14.6571 5.56016C14.6562 5.82613 14.532 6.04398 14.3266 6.2077C14.0383 6.43758 13.713 6.48141 13.3787 6.33273C13.0354 6.1802 12.8434 5.90348 12.8404 5.52363C12.8335 4.62902 12.8395 3.73398 12.8361 2.83895C12.8335 2.20945 12.4627 1.8382 11.834 1.83734C10.5454 1.8352 9.25676 1.83648 7.96813 1.83734C7.91055 1.83734 7.85297 1.84637 7.74383 1.85582C8.77551 2.22449 9.17469 2.92445 9.17039 3.95227C9.15234 8.34066 9.16266 12.7291 9.16266 17.1175V17.4131H9.42047C10.2081 17.4131 10.9953 17.4135 11.7829 17.4131C12.4816 17.4127 12.8361 17.0564 12.8365 16.3543C12.8373 15.2234 12.8356 14.092 12.8382 12.9611C12.8382 12.8335 12.8408 12.7007 12.8743 12.5787C12.9907 12.1533 13.4153 11.8697 13.8364 11.9213C14.3146 11.9797 14.6554 12.3333 14.6584 12.8129C14.6665 14.037 14.6691 15.2612 14.6605 16.4854C14.6489 18.0585 13.4466 19.2448 11.871 19.2496C11.0477 19.2521 10.2244 19.2496 9.40113 19.2504C9.32594 19.2504 9.25074 19.2564 9.15836 19.2607C9.15836 19.6054 9.16738 19.9272 9.15621 20.2482C9.13645 20.8196 8.89754 21.2953 8.4309 21.6189C8.18555 21.789 7.88219 21.8758 7.60504 22.0004L7.60547 22Z" fill="#610183" fill-opacity="0.54"/>
<path d="M22 9.36718C21.8332 9.59406 21.691 9.845 21.4955 10.0435C20.38 11.1757 19.2508 12.2946 18.1285 13.4204C17.8857 13.6636 17.6055 13.7964 17.2588 13.7341C16.8033 13.652 16.5038 13.2838 16.5017 12.8017C16.4978 11.9853 16.5004 11.1693 16.5004 10.3529C16.5004 10.2751 16.5004 10.1973 16.5004 10.0865C16.405 10.0865 16.3229 10.0865 16.2404 10.0865C15.1305 10.0865 14.0207 10.0882 12.9108 10.0856C12.399 10.0843 12.0286 9.79945 11.9388 9.34914C11.8219 8.7639 12.2465 8.25343 12.8631 8.25129C13.9871 8.24699 15.1112 8.25 16.2357 8.25C16.3139 8.25 16.3917 8.25 16.5004 8.25V8.01281C16.5004 7.20371 16.5038 6.39461 16.4991 5.58551C16.4965 5.15625 16.6645 4.82625 17.0646 4.65996C17.4633 4.4941 17.8174 4.60195 18.1212 4.9066C19.3093 6.09812 20.5034 7.28406 21.6854 8.48117C21.8203 8.61781 21.8968 8.81289 22.0004 8.98047V9.36718H22Z" fill="#610183" fill-opacity="0.54"/>
</g>
<defs>
<clipPath id="clip0_132_860">
<rect width="22" height="22" fill="white"/>
</clipPath>
</defs>
</svg>
