<svg width="18" height="19" viewBox="0 0 18 19" fill="none" xmlns="http://www.w3.org/2000/svg">
<g clip-path="url(#clip0_371_5)">
<path fill-rule="evenodd" clip-rule="evenodd" d="M18.0001 16.8932L13.9841 12.6172C14.7895 11.3303 15.2601 9.78564 15.2601 8.12391C15.2601 3.63839 11.8441 0.00131226 7.6308 0.00131226C3.41747 0.00131226 -0.0638638 3.63709 0.000136149 8.12261C0.0654695 12.6927 3.46547 16.309 7.62947 16.2439C9.28147 16.2192 10.8055 15.6791 12.0535 14.7305L16.0641 19L17.9988 16.8919L18.0001 16.8932ZM12.9948 8.23321C12.9948 11.3875 10.5921 13.9445 7.6308 13.9445C4.66947 13.9445 2.2668 11.3875 2.2668 8.23321C2.2668 5.07891 4.66814 2.52189 7.62947 2.52189C10.5921 2.52189 12.9935 5.07891 12.9935 8.23321H12.9948Z" fill="#330A5B"/>
</g>
<defs>
<clipPath id="clip0_371_5">
<rect width="18" height="19" fill="white"/>
</clipPath>
</defs>
</svg>
