<svg width="23" height="25" viewBox="0 0 23 25" fill="none" xmlns="http://www.w3.org/2000/svg">
<g clip-path="url(#clip0_410_51)">
<path d="M11.258 24.9998C10.6917 24.8672 10.3244 24.5511 10.009 24.1662C7.4813 21.08 4.94409 17.9989 2.41006 14.916C1.31664 13.5853 0.529117 12.1535 0.164996 10.5773C-0.140909 9.2517 -0.00753883 7.94906 0.455023 6.66766C1.14198 4.76681 2.46934 3.20245 4.40214 1.97289C5.83323 1.06282 7.44425 0.443368 9.23734 0.1808C13.2152 -0.402117 16.6987 0.429772 19.6 2.68666C21.4301 4.10997 22.5045 5.87401 22.8813 7.90658C23.2814 10.0615 22.6516 12.0592 21.3253 13.9048C20.2933 15.34 19.112 16.7064 17.9794 18.0949C16.325 20.1232 14.6505 22.1413 12.9939 24.1679C12.6785 24.5537 12.3112 24.8681 11.7439 25.0007H11.2569L11.258 24.9998ZM11.5036 23.964C11.6274 23.8289 11.7206 23.7354 11.8031 23.636C13.2723 21.8507 14.7457 20.068 16.2054 18.2776C17.5148 16.6716 18.8411 15.0732 20.0996 13.4417C20.957 12.3303 21.4672 11.0948 21.6027 9.78958C21.8271 7.62786 21.0448 5.68452 19.3078 4.04114C16.9019 1.7647 13.7994 0.807054 10.0968 1.16649C8.45723 1.32539 6.96687 1.81994 5.62576 2.59149C3.81362 3.63327 2.54766 5.00729 1.85329 6.70675C1.40978 7.79271 1.23407 8.90926 1.43095 10.0522C1.69981 11.6055 2.46616 13.0033 3.52889 14.3017C6.08938 17.4287 8.66152 20.5498 11.2305 23.6725C11.3014 23.7592 11.385 23.8391 11.5025 23.964H11.5036Z" fill="#A0A0A0"/>
<path d="M11.5037 14.1141C8.14188 14.1158 5.41203 11.9243 5.41309 9.22471C5.41414 6.53106 8.16305 4.3294 11.5142 4.33874C14.8612 4.34724 17.5847 6.537 17.5889 9.22131C17.5932 11.9201 14.8665 14.1124 11.5037 14.1149V14.1141ZM11.4994 5.42215C8.89659 5.42385 6.75102 7.15051 6.76055 9.23576C6.77007 11.321 8.89129 13.0247 11.4878 13.0307C14.0948 13.0375 16.2362 11.327 16.2425 9.23321C16.2489 7.14711 14.1012 5.42045 11.5005 5.42215H11.4994Z" fill="#A0A0A0"/>
</g>
<defs>
<clipPath id="clip0_410_51">
<rect width="23" height="25" fill="white"/>
</clipPath>
</defs>
</svg>
