<svg width="71" height="81" viewBox="0 0 71 81" fill="none" xmlns="http://www.w3.org/2000/svg">
<g clip-path="url(#clip0_82_385)">
<path d="M57.7522 26.8687C57.8541 27.3472 58.5459 27.5281 58.7309 27.9765C59.6373 30.1698 59.4683 32.2767 57.669 34.1866C57.1462 34.7415 56.3605 35.232 55.4461 35.3888C54.7409 35.5094 54.7436 35.7808 54.7516 36.1749C54.7891 37.8837 54.6899 39.5745 53.5074 41.1144C52.6735 42.2001 51.6411 43.147 50.48 44.0597C48.5038 45.6157 46.2379 46.8521 43.8058 47.9458C43.4518 48.1046 43.291 48.2936 43.307 48.6092C43.3419 49.2586 43.3312 49.91 43.3365 50.5613C43.3097 51.9344 43.2883 53.3277 42.4007 54.5641C40.6712 56.9765 37.8529 58.0219 34.2973 57.6842C31.3825 57.4068 29.4143 56.0598 28.2666 54.0212C27.6338 52.8974 27.7893 51.7234 27.6901 50.5613C28.0709 48.9611 27.4488 47.8855 25.3894 47.021C22.413 45.7705 19.9809 43.9712 18.01 41.8281C16.7577 40.4671 16.259 39.0096 16.2643 37.4032C16.2643 36.7519 16.2482 36.1025 16.2375 35.4511C16.1785 35.4129 16.1195 35.3747 16.0605 35.3365C14.2076 35.2219 12.7328 34.0921 12.049 32.327C11.2634 30.2965 11.5154 28.4107 13.3067 26.7119C14.154 26.5209 15.0014 26.5229 15.846 26.72C16.1839 26.9612 16.2107 26.7581 16.2456 26.5631C16.4601 25.2544 17.1519 24.0702 18.1923 23.0429C20.5064 20.7631 23.6599 19.7921 27.4595 19.8202C32.7367 19.8584 38.0111 19.8243 43.2883 19.8343C44.1142 19.8343 44.9535 19.8444 45.7633 19.9489C50.11 20.5078 52.9925 22.3654 54.3789 25.5137C54.3789 25.572 54.3789 25.6283 54.3789 25.6866C54.4969 26.2736 54.4137 26.9672 55.7572 26.5973C56.2264 26.4687 56.87 26.4847 57.3794 26.738C57.4626 26.8486 57.5993 26.8707 57.7495 26.8707L57.7522 26.8687ZM35.5013 38.2938C33.1952 38.2938 31.2618 38.2979 29.3258 38.2918C28.7922 38.2918 28.4302 38.3441 28.516 38.8688C29.055 42.1679 33.6135 44.2909 37.7752 43.1429C40.3386 42.4353 41.9797 41.0964 42.4731 39.0498C42.5589 38.6919 42.8566 38.0948 41.8242 38.1953C39.5959 38.4104 37.3595 38.2094 35.5013 38.2938ZM45.0581 28.9817C43.7951 28.9736 42.7842 29.6451 42.7386 30.5196C42.701 31.2494 43.9479 32.2646 44.9133 32.2908C46.0636 32.3209 47.1523 31.5248 47.155 30.6503C47.155 29.4682 46.5543 28.9897 45.0581 28.9817ZM25.8211 28.9817C24.5501 28.9877 23.6786 29.6029 23.6786 30.4915C23.6786 31.3962 24.6761 32.138 25.8989 32.142C27.2584 32.146 28.1004 31.5027 28.0923 30.4653C28.087 29.4762 27.3174 28.9756 25.8184 28.9817H25.8211Z" fill="#AA751F"/>
<path d="M27.6928 50.5573C27.792 51.7193 27.6365 52.8934 28.2693 54.0172C29.4196 56.0538 31.3852 57.4027 34.2999 57.6802C37.8556 58.0179 40.6738 56.9725 42.4034 54.56C43.2909 53.3236 43.3124 51.9304 43.3392 50.5573C47.82 51.3514 52.0111 52.6542 55.8429 54.5842C55.9743 54.6505 56.0762 54.751 56.1915 54.8375C56.1728 55.1531 55.2021 55.5813 56.3819 55.7582V56.3593C55.5399 56.9323 55.5399 58.1948 56.3846 58.9166C56.3846 59.0674 56.3846 59.2181 56.3846 59.3669C55.9797 59.389 55.8295 59.5639 55.7813 59.8554C55.3844 62.3282 54.1402 64.5477 52.1318 66.5239C51.8663 66.7853 51.7376 67.0306 51.7724 67.3402C50.8661 67.4769 49.7479 68.3152 49.5656 68.9947C49.1982 68.9847 48.8791 69.0269 48.552 69.2119C46.0663 70.6272 43.299 71.558 40.1804 71.8495C39.7916 71.8857 39.561 72.0003 39.5315 72.3018C39.3974 72.3018 39.2634 72.3018 39.1293 72.3018C38.593 71.7409 38.2122 71.8797 37.9253 72.4506C37.6571 72.4506 37.3917 72.4506 37.1235 72.4526C36.5497 71.9862 36.1394 72.0284 35.7184 72.5994C34.7156 72.5994 33.7127 72.5994 32.7098 72.6014C32.4417 72.3883 32.1735 72.3883 31.9054 72.6014C30.9025 72.6014 29.8996 72.6014 28.8968 72.5994C28.4758 72.0284 28.0655 71.9842 27.4917 72.4506C27.1565 72.4506 26.824 72.4506 26.4888 72.4486C26.1348 71.8937 25.9471 71.8656 25.4859 72.2998C25.2848 72.2998 25.0837 72.2998 24.8853 72.2978C24.8584 71.9943 24.6278 71.8053 24.239 71.8636C23.6089 71.9581 22.9975 71.7872 22.4424 71.7048C20.1766 71.363 17.9241 70.9368 15.7173 70.4221C11.4323 69.4229 7.28672 68.1624 3.49511 66.3209C3.17333 66.1661 2.79524 65.9811 2.41715 66.2827C2.34476 66.2827 2.27504 66.2807 2.20264 66.2787C3.08752 64.3447 4.61865 62.676 6.15782 61.0255C7.44225 59.6484 8.91974 58.3758 10.5769 57.2359C14.996 54.1982 20.0908 52.049 25.8533 50.8086C26.4512 50.6799 27.0814 50.6357 27.6981 50.5533L27.6928 50.5573Z" fill="#282828"/>
<path d="M57.3822 26.736C57.4787 26.6717 57.5753 26.6094 57.6745 26.545C57.7013 26.6516 57.7281 26.7602 57.7549 26.8667C57.6021 26.8667 57.4653 26.8446 57.3849 26.734L57.3822 26.736Z" fill="#9B9A9A"/>
<path d="M59.589 56.7795C59.4576 56.8016 59.4094 56.7574 59.4255 56.6629C59.4791 56.7011 59.5354 56.7413 59.589 56.7795Z" fill="#FCFCFD"/>
<path d="M35.5013 38.2918C37.3595 38.2094 39.5959 38.4105 41.8242 38.1933C42.8592 38.0928 42.5589 38.6899 42.4731 39.0477C41.9797 41.0943 40.3386 42.4333 37.7752 43.1409C33.6162 44.2889 29.0577 42.1659 28.516 38.8668C28.4302 38.3401 28.7922 38.2878 29.3258 38.2898C31.2618 38.2959 33.1952 38.2918 35.5013 38.2918Z" fill="#E8F1F8"/>
<path d="M45.0581 28.9796C46.5544 28.9877 47.1577 29.4662 47.155 30.6483C47.155 31.5228 46.0663 32.3189 44.9133 32.2888C43.948 32.2626 42.7011 31.2474 42.7386 30.5176C42.7842 29.6431 43.7951 28.9736 45.0581 28.9796Z" fill="black"/>
<path d="M25.8211 28.9796C27.3174 28.9716 28.0869 29.4742 28.095 30.4633C28.1004 31.5007 27.2584 32.144 25.9015 32.14C24.6788 32.136 23.6813 31.3941 23.6813 30.4895C23.6813 29.6009 24.5528 28.9857 25.8238 28.9796H25.8211Z" fill="black"/>
<path d="M15.8488 26.7159C15.9158 26.5692 16.1008 26.5893 16.2483 26.5591C16.2134 26.7541 16.1866 26.9572 15.8488 26.7159Z" fill="#EEB0A1"/>
<path d="M54.3816 25.5117C54.5854 25.568 54.5747 25.6263 54.3816 25.6846C54.3816 25.6263 54.3816 25.57 54.3816 25.5117Z" fill="#EEB0A1"/>
<path d="M24.8825 72.3038C25.0836 72.3038 25.2847 72.3039 25.4831 72.3059C25.7647 72.5552 26.1481 72.4205 26.486 72.4546C26.8212 72.4546 27.1537 72.4546 27.4888 72.4566C27.9125 72.7421 28.4274 72.5491 28.8939 72.6054C29.8968 72.6054 30.8997 72.6054 31.9026 72.6074C32.1707 72.8165 32.4389 72.8165 32.707 72.6074C33.7099 72.6074 34.7127 72.6074 35.7156 72.6054C36.1822 72.5491 36.697 72.7441 37.1207 72.4566C37.3889 72.4566 37.6543 72.4566 37.9225 72.4546C38.3247 72.4084 38.7725 72.5773 39.1265 72.3059C39.2605 72.3059 39.3946 72.3059 39.5287 72.3059C41.6202 72.2013 43.5724 71.7128 45.4494 71.0574C46.9564 70.5327 48.4768 70.0039 49.5628 68.9967C50.5362 68.6248 51.2736 68.0719 51.7696 67.3422C52.625 66.9079 53.0782 66.2324 53.5823 65.5971C55.1108 63.6732 56.119 61.6145 56.3818 59.3689C56.3818 59.2181 56.3818 59.0674 56.3818 58.9186C56.7036 58.0662 56.7036 57.2138 56.3818 56.3613C56.3818 56.1603 56.3818 55.9613 56.3791 55.7602C56.3577 55.4928 56.3952 55.2315 56.5856 54.9963C57.5321 55.5532 58.476 56.108 59.4226 56.6649C59.4065 56.7594 59.4548 56.8036 59.5861 56.7815C64.4128 60.0082 67.8531 63.9245 69.9769 68.4982C70.0091 68.5685 70.0064 68.6449 70.0305 68.7173C70.6499 70.6111 70.6285 70.589 68.4833 71.751C62.3105 75.0963 55.5264 77.4445 48.1067 78.701C45.2778 79.1794 42.4113 79.5333 39.4965 79.7202C37.1985 79.869 34.9058 79.8308 32.64 79.7785C27.7597 79.6639 22.9813 78.9442 18.3155 77.8284C12.3519 76.4011 6.9085 74.2178 1.83514 71.4937C1.78151 71.4655 1.74129 71.4233 1.69034 71.3911C0.110949 70.3799 0.0465936 70.1527 1.03338 68.2288C1.37124 67.5673 1.80564 66.9321 2.19446 66.2867C2.26686 66.2867 2.33658 66.2887 2.40898 66.2907C3.70681 66.8516 4.98052 67.4467 6.30785 67.9674C9.83399 69.3486 13.5318 70.4201 17.3689 71.2001C19.8332 71.7007 22.327 72.1289 24.8798 72.3079L24.8825 72.3038Z" fill="#282828"/>
<path d="M56.5886 54.9943C56.3982 55.2295 56.3606 55.4908 56.3821 55.7582C55.2049 55.5793 56.1756 55.1531 56.1917 54.8375C56.3419 54.8656 56.5135 54.8596 56.5886 54.9943Z" fill="#282828"/>
<path d="M56.3819 59.3689C56.1191 61.6145 55.1109 63.6732 53.5824 65.5971C53.0783 66.2324 52.6252 66.9079 51.7698 67.3422C51.7349 67.0306 51.8636 66.7873 52.1291 66.526C54.1375 64.5497 55.3817 62.3302 55.7786 59.8574C55.8268 59.5659 55.977 59.391 56.3819 59.3689Z" fill="#282828"/>
<path d="M24.8825 72.3038C22.3298 72.1249 19.836 71.6967 17.3717 71.1961C13.5345 70.4161 9.83676 69.3465 6.31061 67.9634C4.98328 67.4427 3.70958 66.8476 2.41174 66.2867C2.78983 65.9851 3.1706 66.1701 3.4897 66.3249C7.28131 68.1664 11.4269 69.427 15.7119 70.4261C17.9187 70.9408 20.1712 71.367 22.437 71.7088C22.9921 71.7932 23.6035 71.9621 24.2336 71.8676C24.6224 71.8093 24.853 71.9983 24.8799 72.3018L24.8825 72.3038Z" fill="#282828"/>
<path d="M49.5629 68.9967C48.4769 70.0039 46.9565 70.5307 45.4495 71.0574C43.5725 71.7128 41.6204 72.2013 39.5288 72.3059C39.5583 72.0043 39.7889 71.8897 40.1777 71.8535C43.2963 71.562 46.0636 70.6312 48.5493 69.2159C48.8764 69.0309 49.1929 68.9887 49.5629 68.9987V68.9967Z" fill="#282828"/>
<path d="M56.3846 56.3593C56.7064 57.2117 56.7064 58.0642 56.3846 58.9166C55.5399 58.1948 55.5399 56.9323 56.3846 56.3593Z" fill="#282828"/>
<path d="M51.7697 67.3422C51.2737 68.0719 50.5362 68.6248 49.5629 68.9967C49.7452 68.3172 50.8634 67.4789 51.7697 67.3422Z" fill="#282828"/>
<path d="M28.8968 72.6054C28.4302 72.5491 27.9154 72.7441 27.4917 72.4566C28.0655 71.9902 28.4758 72.0324 28.8968 72.6054Z" fill="#282828"/>
<path d="M37.1208 72.4586C36.6971 72.7441 36.1823 72.5511 35.7157 72.6074C36.1367 72.0365 36.547 71.9922 37.1208 72.4586Z" fill="#282828"/>
<path d="M39.1293 72.3059C38.7753 72.5773 38.3275 72.4084 37.9253 72.4546C38.2122 71.8837 38.593 71.745 39.1293 72.3059Z" fill="#282828"/>
<path d="M26.4888 72.4546C26.151 72.4205 25.7675 72.5552 25.486 72.3059C25.9472 71.8716 26.1349 71.8998 26.4888 72.4546Z" fill="#282828"/>
<path d="M32.7098 72.6074C32.4417 72.8165 32.1735 72.8165 31.9054 72.6074C32.1735 72.3943 32.4417 72.3943 32.7098 72.6074Z" fill="#282828"/>
<path d="M60.2407 75.4843C55.8028 77.1248 46.9432 79.8569 35.2252 79.8228C23.6841 79.7906 14.9585 77.0906 10.5368 75.4481C10.5153 74.455 10.5019 72.9914 10.5716 71.3007C10.585 70.9428 10.6065 70.3075 11.0463 69.6019C11.3144 69.1696 11.6925 68.7877 12.1725 68.4399C12.7865 67.9935 13.5293 68.2469 14.1031 67.8629C16.4655 67.8588 18.8279 67.8568 21.1903 67.8528C21.5898 67.8669 21.9894 67.893 22.3889 67.893C30.487 67.895 38.5851 67.897 46.6831 67.893C47.6484 67.893 48.6138 67.8649 49.5791 67.8508C51.9254 67.8588 54.2717 67.8649 56.618 67.8729C56.9559 68.3092 57.4761 67.9915 57.9131 68.1765C58.6184 68.4781 59.7634 69.7908 60.1978 71.749C60.3882 72.6034 60.5464 73.8941 60.2434 75.4863L60.2407 75.4843Z" fill="#2980BA"/>
<path d="M21.1796 53.3196C21.1742 53.4422 21.1688 53.5649 21.1661 53.6875C21.1796 53.7619 21.193 53.8363 21.2064 53.9107C21.201 58.5567 21.1956 63.2048 21.1876 67.8508C18.8252 67.8548 16.4628 67.8568 14.1004 67.8609C14.1085 63.9526 14.1058 60.0424 14.138 56.1342C14.1407 55.7522 13.9798 55.5331 13.6875 55.332C13.9637 54.9561 14.1326 54.5681 14.1326 54.0896C14.1326 52.4109 14.1487 52.4109 15.9346 51.842C17.1305 51.842 18.3291 51.842 19.5251 51.844C20.3537 52.0812 21.1259 52.3707 21.1796 53.3196Z" fill="#3B97D3"/>
<path d="M49.3887 53.7096C49.3994 53.5408 49.4101 53.3699 49.4182 53.201C49.8794 52.5878 50.2199 51.8379 51.2442 51.844C52.4402 51.844 53.6388 51.844 54.8347 51.842C56.5375 52.1294 56.7547 53.2352 56.6528 54.5299C56.626 54.8596 56.6689 55.1933 56.6796 55.525C56.6689 59.186 56.6555 62.8489 56.6421 66.5099C56.6421 66.9642 56.6233 67.4166 56.6126 67.8709C54.2663 67.8649 51.92 67.8568 49.5737 67.8508C49.5737 63.446 49.5791 59.0392 49.5656 54.6344C49.5656 54.3288 49.748 53.969 49.386 53.7116L49.3887 53.7096Z" fill="#3B97D3"/>
<path d="M54.5318 63.8561C55.6312 60.1972 54.8804 57.7566 53.9526 56.1844C52.7137 54.0836 50.5873 52.5637 51.2443 51.844C51.735 51.3072 53.4699 51.5565 54.8348 51.842C56.5375 52.1294 56.7547 53.2352 56.6528 54.5299C56.626 54.8596 56.6689 55.1933 56.6796 55.525C56.6689 59.186 56.6555 62.8489 56.6421 66.5099C56.6421 66.9642 56.6233 67.4166 56.6126 67.8709C55.725 67.8367 54.8374 67.8005 53.9499 67.7664C54.1429 66.4636 54.336 65.1609 54.5291 63.8581L54.5318 63.8561Z" fill="#216287"/>
<path d="M60.4096 76.3045C56.0763 77.929 46.6777 80.9023 34.2598 80.5023C23.0405 80.1404 14.7118 77.1972 10.5367 75.4461C13.8055 75.9809 50.1288 81.7447 54.9099 73.7312C55.6231 72.5371 55.8403 70.6895 53.9526 67.7644C55.2719 67.9011 56.5911 68.0378 57.9077 68.1745C58.6076 68.8841 59.6132 70.0884 60.1924 71.747C60.8815 73.7192 60.6348 75.3878 60.4069 76.3066L60.4096 76.3045Z" fill="#216287"/>
<path d="M12.6229 19.1791C12.6337 16.6138 13.355 14.1571 14.8003 11.8391C15.5833 10.5786 16.5352 9.37636 17.825 8.35105C17.8974 8.35909 17.9698 8.36513 18.0422 8.37317C18.0476 10.2006 18.0368 12.0301 18.0636 13.8575C18.0744 14.6416 18.7555 15.1261 19.761 15.1321C20.7827 15.1382 21.4772 14.6738 21.4798 13.8857C21.4933 11.1314 21.4691 8.37719 21.4584 5.62293C23.0914 4.60567 24.8907 3.80151 26.8723 3.23055C26.8777 5.85815 26.875 8.48575 26.8938 11.1133C26.8991 11.9014 27.4676 12.3699 28.4142 12.4322C29.4814 12.5025 30.074 12.1648 30.3529 11.3646C30.4548 11.0691 30.4843 10.7756 30.4843 10.476C30.4816 7.77206 30.4816 5.07007 30.4816 2.36608C30.4333 2.30979 30.3824 2.2535 30.3341 2.19922C30.3368 1.10355 31.0554 0.546664 32.5088 0.542643C34.4689 0.536612 36.4291 0.542643 38.3893 0.542643C40.5398 0.542643 40.883 0.783892 40.9635 2.35804C40.9635 5.08817 40.9581 7.81628 40.9635 10.5464C40.9635 10.7454 40.9688 10.9485 41.0171 11.1435C41.2531 12.1125 41.8779 12.5106 43.0229 12.4362C44.0659 12.3678 44.554 11.8853 44.5567 10.8942C44.5647 8.341 44.5674 5.78578 44.5727 3.23256C46.5624 3.78945 48.3509 4.60366 49.9786 5.62293C49.9706 8.30481 49.9572 10.9847 49.9572 13.6645C49.9572 14.6436 50.5605 15.1402 51.6921 15.1342C52.8129 15.1261 53.3868 14.6295 53.3921 13.6364C53.4029 11.8833 53.4029 10.1282 53.4055 8.37518C53.4753 8.36915 53.5477 8.3611 53.6174 8.35507C55.8537 10.267 57.2025 12.5146 58.0096 14.9593C58.3904 16.1132 58.6827 17.2793 58.5996 18.4775C58.5808 18.7267 58.5727 18.978 58.8194 19.1851C43.4224 19.1851 28.0253 19.1851 12.6283 19.1831L12.6229 19.1791Z" fill="#F3D55B"/>
<path d="M12.6229 19.1789C28.0199 19.1789 43.417 19.1789 58.814 19.1809C60.0153 19.3579 60.4899 19.7338 60.5328 20.6123C60.565 21.3079 60.5489 22.0056 60.5382 22.7032C60.5221 23.9376 59.8249 24.4542 58.1839 24.4582C57.787 24.4582 57.3875 24.4683 56.9906 24.4743C55.7947 24.4743 54.6014 24.4703 53.4055 24.4683C45.1572 24.4623 36.909 24.4522 28.6581 24.4502C25.1185 24.4502 21.579 24.4623 18.0394 24.4703C16.8435 24.4703 15.6449 24.4703 14.4489 24.4723C13.9502 24.4663 13.4514 24.4582 12.9527 24.4562C11.7138 24.4502 11.0006 24.016 10.9282 23.0992C10.8584 22.2046 10.8638 21.3019 10.9308 20.4073C10.9979 19.5287 11.4269 19.2614 12.6202 19.1789H12.6229Z" fill="#F0C419"/>
<path d="M30.4816 2.36592C30.4816 5.06991 30.4816 7.77189 30.4843 10.4759C30.4843 10.7774 30.4548 11.069 30.3529 11.3645C30.074 12.1646 29.4814 12.5024 28.4142 12.432C27.4649 12.3697 26.8991 11.9013 26.8938 11.1132C26.875 8.48559 26.8777 5.85799 26.8723 3.23039C27.9395 2.78207 29.1087 2.54886 30.2885 2.34179C30.3529 2.34983 30.4172 2.35989 30.4816 2.36793V2.36592Z" fill="#B19046"/>
<path d="M44.5701 3.22838C44.5647 5.7816 44.562 8.33682 44.554 10.89C44.5513 11.8792 44.0633 12.3637 43.0202 12.432C41.8752 12.5064 41.2504 12.1083 41.0144 11.1393C40.9662 10.9443 40.9608 10.7413 40.9608 10.5422C40.9608 7.8121 40.9608 5.08399 40.9608 2.35386C42.1916 2.58103 43.4412 2.75795 44.5674 3.22838H44.5701Z" fill="#B19046"/>
<path d="M21.4584 5.62277C21.4691 8.37703 21.4933 11.1313 21.4799 13.8855C21.4772 14.6756 20.7827 15.14 19.761 15.132C18.7555 15.126 18.0744 14.6414 18.0637 13.8574C18.0368 12.0299 18.0476 10.2025 18.0422 8.37301C18.0342 8.30063 18.0261 8.22625 18.0208 8.15387C18.911 7.11449 20.0426 6.25806 21.4611 5.62277H21.4584Z" fill="#B19046"/>
<path d="M53.4028 8.373C53.3975 10.1261 53.3975 11.8812 53.3894 13.6342C53.3841 14.6274 52.8129 15.1239 51.6894 15.132C50.5605 15.14 49.9545 14.6414 49.9545 13.6624C49.9545 10.9825 49.9679 8.30063 49.9759 5.62076C51.2925 6.33848 52.4402 7.18285 53.4243 8.15387C53.4163 8.22625 53.4082 8.30063 53.4028 8.373Z" fill="#B19046"/>
<path d="M53.4082 24.4683C54.6041 24.4683 55.7974 24.4723 56.9933 24.4743C57.0014 24.9689 57.0067 25.4635 57.0148 25.958C57.0067 27.11 56.9933 28.2639 56.988 29.4159C56.988 29.9044 56.8753 30.3708 56.3819 30.7166C55.8188 31.1127 55.1458 31.1509 54.4218 30.988C53.561 30.795 53.4699 30.2402 53.4296 29.7315C53.3599 28.8329 53.4055 27.9282 53.4055 27.0255C53.4055 26.1731 53.4055 25.3207 53.4082 24.4683Z" fill="black"/>
<path d="M14.4517 24.4743C15.6476 24.4743 16.8463 24.4743 18.0422 24.4723C18.0422 26.145 18.0529 27.8176 18.0368 29.4903C18.0288 30.4291 17.4147 30.9921 16.369 31.0745C15.3446 31.1549 14.4919 30.6101 14.4678 29.8321C14.4329 28.5856 14.4222 27.3392 14.4008 26.0907C14.4168 25.5519 14.4356 25.0131 14.4517 24.4743Z" fill="black"/>
</g>
<defs>
<clipPath id="clip0_82_385">
<rect width="70" height="80" fill="white" transform="translate(0.384644 0.538462)"/>
</clipPath>
</defs>
</svg>
